<svg xmlns="http://www.w3.org/2000/svg" viewBox="0 0 60 40"><rect width="60" height="40" fill="#fff"/><g transform="translate(30 20) rotate(33)"><path d="M0-9a9 9 0 0 1 0 18 4.5 4.5 0 0 1 0-9 4.5 4.5 0 0 0 0-9z" fill="#cd2e3a"/><path d="M0 9a9 9 0 0 1 0-18 4.5 4.5 0 0 1 0 9 4.5 4.5 0 0 0 0 9z" fill="#0047a0"/></g><g stroke="#111" stroke-width="2"><path d="M9 8h11M9 12h11M9 16h11M40 24h11M40 28h11M40 32h11M40 8h11M40 12h11M40 16h11M9 24h11M9 28h11M9 32h11"/></g><rect width="60" height="40" fill="none" stroke="#ddd"/></svg>