<!DOCTYPE svg PUBLIC "-//W3C//DTD SVG 20010904//EN" "http://www.w3.org/TR/2001/REC-SVG-20010904/DTD/svg10.dtd">
<svg version="1.0" xmlns="http://www.w3.org/2000/svg" width="991px" height="990px" viewBox="0 0 9910 9900" preserveAspectRatio="xMidYMid meet">
<g id="layer101" fill="#000000" stroke="none">
 <path d="M4570 5340 c0 -4461 0 -4540 -19 -4540 -48 0 -280 34 -416 61 -1044 207 -1963 800 -2586 1669 -416 579 -664 1226 -756 1970 -24 200 -24 724 0 920 65 519 189 943 402 1380 297 606 748 1143 1298 1544 336 244 735 450 1131 582 152 50 425 124 460 124 14 0 16 37 16 380 0 243 -4 380 -10 380 -20 0 -260 -53 -385 -85 -594 -153 -1193 -441 -1692 -813 -506 -378 -925 -836 -1261 -1377 -105 -170 -308 -572 -375 -745 -192 -488 -298 -954 -338 -1470 -15 -204 -7 -718 15 -900 131 -1081 556 -2010 1283 -2803 435 -474 1005 -884 1603 -1150 491 -219 991 -351 1550 -409 190 -20 774 -17 970 5 518 58 979 178 1435 375 891 384 1647 1021 2179 1835 395 606 646 1269 751 1989 43 296 58 775 35 1074 -40 499 -151 982 -335 1449 -69 178 -271 579 -377 750 -657 1060 -1672 1829 -2862 2166 -123 34 -447 109 -475 109 -8 0 -11 -115 -11 -380 0 -356 1 -380 18 -380 30 0 287 -68 420 -111 191 -62 338 -122 532 -216 427 -206 789 -463 1125 -798 337 -336 573 -660 785 -1080 230 -453 362 -894 426 -1425 23 -183 26 -682 6 -870 -105 -980 -522 -1860 -1207 -2545 -581 -581 -1324 -981 -2120 -1140 -152 -30 -386 -65 -436 -65 -19 0 -19 79 -19 4540 l0 4540 -380 0 -380 0 0 -4540z"/>
 <path d="M5792 4993 l3 -3618 28 3 c41 4 322 96 457 150 368 145 691 327 990 558 234 181 558 528 731 786 303 450 539 1021 618 1494 42 256 46 305 46 629 0 343 -10 456 -61 715 -93 471 -296 958 -563 1355 l-41 60 -2 -1210 -3 -1210 -43 -150 c-106 -370 -228 -693 -337 -890 l-50 -90 -5 2037 -5 2037 -95 86 c-141 129 -310 263 -440 350 l-115 77 -3 -2695 -2 -2695 -101 -83 c-55 -46 -153 -121 -217 -167 l-117 -83 -3 2979 -2 2979 -98 38 c-200 77 -509 175 -554 175 -17 0 -18 -119 -16 -3617z"/>
 <path d="M3945 8551 c-941 -299 -1566 -762 -2100 -1556 -210 -313 -385 -683 -475 -1007 l-19 -68 402 0 402 0 39 98 c121 296 321 640 501 857 170 205 428 436 608 544 l37 23 0 -1141 0 -1141 -1057 0 -1056 0 6 -242 c13 -549 109 -1004 307 -1455 283 -645 823 -1262 1450 -1656 154 -97 483 -260 650 -322 124 -46 418 -135 445 -135 13 0 15 149 15 1140 l0 1140 -385 0 -385 0 0 -566 0 -566 -82 58 c-558 388 -950 947 -1147 1633 -22 75 -42 154 -46 174 l-7 37 1026 0 1026 0 0 2100 c0 1155 -1 2100 -2 2099 -2 0 -70 -22 -153 -48z"/>
 </g>

</svg>